<svg id="svg" version="1.1" xmlns="http://www.w3.org/2000/svg" xmlns:xlink="http://www.w3.org/1999/xlink" width="400" height="71.875" viewBox="0, 0, 400,71.875"><g id="svgg"><path id="path0" d="M28.833 0.929 C 27.809 1.405,27.153 1.967,26.613 2.833 L 26.250 3.417 26.199 21.917 C 26.171 32.092,26.195 40.886,26.254 41.460 C 26.690 45.738,32.962 46.628,34.816 42.675 L 35.250 41.750 35.250 23.000 C 35.250 5.042,35.237 4.215,34.936 3.417 C 33.995 0.917,31.260 -0.198,28.833 0.929 M3.799 9.735 C 2.810 10.088,1.695 11.269,1.404 12.270 C 1.012 13.618,1.124 33.191,1.528 33.917 C 3.369 37.223,8.648 36.983,9.888 33.536 C 10.306 32.373,10.233 12.961,9.806 11.923 C 8.999 9.956,6.118 8.907,3.799 9.735 M41.917 9.582 C 41.825 9.612,41.544 9.683,41.292 9.738 C 39.750 10.079,38.518 12.421,38.723 14.622 C 39.138 19.061,45.515 20.018,47.357 15.917 C 48.945 12.380,45.512 8.383,41.917 9.582 M53.845 14.176 C 52.655 14.715,51.562 15.980,51.334 17.081 C 51.003 18.675,51.174 28.777,51.543 29.453 C 52.974 32.070,56.489 32.689,58.784 30.728 C 59.269 30.314,59.667 29.886,59.668 29.779 C 59.668 29.671,59.798 29.358,59.957 29.083 C 60.298 28.491,60.493 18.891,60.190 17.613 C 59.451 14.497,56.573 12.938,53.845 14.176 M17.000 22.823 C 11.874 24.387,12.842 31.852,18.167 31.816 C 23.283 31.782,24.544 24.808,19.757 23.017 C 18.811 22.663,17.764 22.589,17.000 22.823 " stroke="none" fill="#fcd404" fill-rule="evenodd"></path><path id="path1" d="M94.061 27.172 C 92.942 27.517,91.948 28.370,91.379 29.473 L 90.833 30.529 90.833 33.265 L 90.833 36.000 89.594 36.000 C 88.112 36.000,87.726 36.130,86.849 36.922 C 84.003 39.494,85.967 44.167,89.894 44.167 L 90.833 44.167 90.843 53.542 C 90.852 62.361,90.872 62.986,91.182 64.083 C 91.364 64.725,91.558 65.438,91.614 65.667 C 91.670 65.896,91.987 66.491,92.317 66.988 C 92.647 67.486,93.029 68.065,93.167 68.275 C 93.673 69.050,95.455 70.407,96.833 71.069 L 98.250 71.750 101.250 71.750 L 104.250 71.750 105.833 70.964 C 111.333 68.233,112.868 62.542,108.670 60.450 C 106.804 59.520,105.196 59.929,103.364 61.802 C 101.920 63.278,101.412 63.388,100.375 62.448 L 100.000 62.109 100.000 53.138 L 100.000 44.167 102.813 44.167 C 106.202 44.167,106.400 44.132,107.435 43.359 C 109.832 41.567,109.759 38.276,107.282 36.482 L 106.617 36.000 103.308 36.000 L 100.000 36.000 100.000 33.275 C 100.000 30.240,99.900 29.772,99.025 28.696 C 97.949 27.372,95.674 26.673,94.061 27.172 M53.531 36.338 C 51.036 37.859,51.147 37.004,51.203 54.269 L 51.250 68.750 51.617 69.341 C 53.601 72.529,58.247 72.431,59.806 69.167 L 60.244 68.250 60.334 58.583 L 60.424 48.917 60.837 47.995 C 63.153 42.827,70.115 42.749,72.512 47.865 L 73.083 49.083 73.174 58.667 C 73.276 69.356,73.242 69.051,74.442 70.285 C 76.857 72.770,81.143 71.802,82.051 68.569 C 82.302 67.673,82.333 66.468,82.330 57.656 C 82.327 47.596,82.239 45.817,81.658 44.056 C 81.366 43.172,80.052 40.771,79.582 40.264 C 79.353 40.018,79.167 39.790,79.167 39.759 C 79.167 39.661,78.205 38.667,78.110 38.667 C 78.061 38.667,77.778 38.445,77.481 38.174 C 76.924 37.665,75.488 36.918,74.064 36.397 C 73.014 36.013,67.908 35.860,66.500 36.171 C 64.454 36.622,61.944 38.054,60.913 39.357 C 60.332 40.092,60.167 40.147,60.167 39.604 C 60.167 39.151,59.402 37.334,59.210 37.333 C 59.141 37.332,58.858 37.125,58.583 36.872 C 57.534 35.908,54.724 35.611,53.531 36.338 M259.292 37.260 C 258.852 37.501,258.833 37.563,258.833 38.827 C 258.833 40.559,259.455 41.192,260.613 40.638 C 261.155 40.379,261.437 37.759,260.964 37.378 C 260.566 37.057,259.766 37.000,259.292 37.260 M307.721 37.518 C 306.024 38.004,306.214 40.948,307.961 41.243 C 310.048 41.596,311.132 38.157,309.117 37.579 C 308.407 37.375,308.245 37.368,307.721 37.518 M142.641 37.612 C 141.768 37.844,141.862 39.584,142.785 40.288 C 143.374 40.738,143.455 40.751,145.820 40.797 C 148.455 40.849,148.614 40.810,148.758 40.075 C 148.949 39.097,148.613 38.927,146.306 38.833 C 144.332 38.753,144.248 38.735,144.197 38.376 C 144.106 37.737,143.427 37.403,142.641 37.612 M163.318 37.805 C 161.587 38.435,161.052 39.442,161.991 40.301 C 162.898 41.129,163.000 41.643,163.001 45.370 C 163.002 50.488,163.600 51.562,165.909 50.597 C 167.182 50.065,167.143 48.333,165.857 48.333 L 165.333 48.333 165.313 45.000 C 165.301 43.167,165.278 41.610,165.261 41.542 C 165.245 41.473,165.174 41.178,165.105 40.887 C 165.035 40.595,164.871 40.267,164.739 40.158 C 164.049 39.585,165.104 39.490,166.500 40.000 C 167.844 40.491,168.361 40.360,168.585 39.470 C 168.943 38.045,165.579 36.981,163.318 37.805 M322.564 37.740 C 322.125 38.048,322.043 39.323,322.425 39.906 C 323.293 41.231,329.000 41.259,329.000 39.939 C 329.000 39.052,328.695 38.923,326.389 38.833 C 324.259 38.750,324.250 38.748,324.197 38.333 C 324.097 37.561,323.256 37.256,322.564 37.740 M345.314 39.083 C 342.625 40.545,342.692 50.794,345.401 52.253 C 346.782 52.997,347.258 52.183,346.449 50.463 C 345.170 47.744,345.203 43.291,346.522 40.611 L 347.083 39.472 346.690 39.153 C 346.227 38.777,345.908 38.761,345.314 39.083 M394.091 39.057 C 393.738 39.315,393.752 39.403,394.495 41.583 C 395.531 44.627,395.329 48.973,394.058 50.968 C 393.471 51.890,394.279 52.853,395.219 52.350 C 397.510 51.124,398.077 43.496,396.134 40.041 C 395.469 38.858,394.802 38.537,394.091 39.057 M129.839 39.322 C 129.148 40.613,129.731 40.833,133.845 40.833 C 137.516 40.833,137.833 40.762,137.833 39.934 C 137.833 39.010,137.788 39.000,133.750 39.000 C 130.225 39.000,130.002 39.018,129.839 39.322 M289.533 39.200 C 289.202 39.532,289.296 40.288,289.704 40.574 C 290.305 40.995,296.838 40.956,297.224 40.529 C 297.547 40.172,297.586 39.486,297.300 39.200 C 297.016 38.916,289.817 38.916,289.533 39.200 M308.667 39.323 C 308.667 39.501,308.585 39.697,308.485 39.759 C 308.231 39.916,307.936 39.575,308.056 39.261 C 308.199 38.889,308.667 38.937,308.667 39.323 M121.141 41.612 C 120.461 41.792,120.242 46.945,120.840 48.698 C 121.718 51.271,127.034 51.424,128.451 48.917 C 128.914 48.097,129.046 42.217,128.609 41.855 C 127.176 40.665,126.599 41.563,126.500 45.138 C 126.454 46.789,126.379 48.174,126.333 48.215 C 125.366 49.093,123.485 48.914,123.023 47.901 C 122.907 47.647,122.833 46.478,122.833 44.901 C 122.833 41.771,122.558 41.236,121.141 41.612 M133.040 41.676 C 131.984 41.863,130.879 42.524,130.660 43.100 C 129.878 45.158,130.987 46.628,133.593 46.991 C 135.580 47.267,136.305 47.995,135.175 48.579 C 134.511 48.922,133.758 48.899,132.623 48.500 C 131.137 47.978,130.324 48.190,130.339 49.096 C 130.372 51.083,136.557 51.335,137.551 49.390 C 138.715 47.113,137.681 45.702,134.500 45.225 C 132.813 44.972,132.258 44.421,133.007 43.744 C 133.482 43.314,134.723 43.342,135.618 43.805 C 136.705 44.365,137.264 44.297,137.502 43.577 C 137.961 42.187,135.671 41.211,133.040 41.676 M140.005 41.682 C 139.778 41.774,139.536 41.940,139.466 42.050 C 139.262 42.370,139.311 47.549,139.523 48.183 C 140.799 51.994,147.667 51.399,147.667 47.478 C 147.667 47.173,147.754 47.000,147.907 47.000 C 148.704 47.000,148.941 45.380,148.167 45.225 L 147.667 45.125 147.667 43.572 C 147.667 41.886,147.458 41.500,146.546 41.500 C 145.752 41.500,145.500 42.025,145.500 43.678 L 145.500 45.189 145.042 45.136 C 144.681 45.094,144.567 44.979,144.500 44.583 C 144.395 43.963,143.366 43.768,142.817 44.265 C 142.065 44.946,142.780 46.792,143.821 46.854 C 144.011 46.866,144.242 46.894,144.333 46.917 C 144.425 46.940,144.725 46.968,145.000 46.979 C 146.347 47.035,144.912 48.833,143.520 48.833 C 141.932 48.833,141.667 48.265,141.667 44.865 C 141.667 42.802,141.610 41.994,141.457 41.867 C 141.119 41.587,140.448 41.501,140.005 41.682 M149.333 41.919 C 149.240 42.162,149.167 44.047,149.167 46.185 L 149.167 50.015 149.594 50.443 C 149.940 50.788,150.123 50.850,150.548 50.765 C 151.378 50.599,151.414 50.483,151.463 47.784 C 151.521 44.626,151.518 44.638,152.366 44.015 C 153.246 43.367,153.953 43.342,154.654 43.931 L 155.167 44.363 155.167 47.109 C 155.167 49.771,155.265 50.393,155.733 50.706 C 156.101 50.951,156.692 50.823,157.106 50.409 L 157.531 49.984 157.462 46.867 C 157.384 43.288,157.263 42.845,156.139 42.018 C 155.171 41.306,152.922 41.245,151.950 41.905 L 151.353 42.310 151.302 41.946 C 151.215 41.338,149.562 41.314,149.333 41.919 M168.006 41.822 C 167.900 42.020,167.835 43.686,167.839 46.114 C 167.845 50.562,167.884 50.733,168.902 50.733 C 169.951 50.733,170.000 50.596,170.000 47.640 L 170.000 44.987 170.625 44.317 C 171.412 43.474,172.292 43.300,173.125 43.822 L 173.667 44.162 173.667 47.088 C 173.667 50.683,174.301 51.702,175.776 50.479 C 176.041 50.259,176.103 44.440,175.850 43.558 C 175.332 41.752,172.605 40.845,170.667 41.833 C 170.307 42.017,169.982 42.167,169.943 42.167 C 169.904 42.167,169.833 42.017,169.785 41.833 C 169.660 41.356,168.260 41.348,168.006 41.822 M180.168 41.691 C 178.295 42.001,177.592 42.842,177.703 44.641 C 177.792 46.099,178.648 46.778,180.676 47.001 C 182.638 47.216,183.469 47.996,182.352 48.574 C 181.678 48.922,180.930 48.901,179.790 48.500 C 178.614 48.087,178.130 48.080,177.776 48.471 C 176.288 50.115,180.954 51.544,183.593 50.253 C 184.996 49.566,185.440 48.016,184.667 46.500 C 184.301 45.784,184.085 45.692,181.720 45.239 C 179.947 44.900,179.526 44.611,179.859 43.964 C 180.205 43.291,181.636 43.240,182.868 43.857 C 184.116 44.482,184.667 44.242,184.667 43.074 C 184.667 41.936,182.573 41.292,180.168 41.691 M188.333 41.918 C 186.786 42.796,186.500 43.642,186.500 47.342 C 186.500 50.358,186.563 50.593,187.419 50.761 C 188.327 50.939,188.833 50.352,188.833 49.122 C 188.833 47.846,189.349 47.168,190.323 47.164 C 191.417 47.159,191.966 46.012,191.148 45.439 C 190.687 45.116,189.326 45.075,189.022 45.375 C 188.852 45.543,188.821 45.457,188.864 44.933 C 188.998 43.280,191.902 43.010,192.504 44.594 C 192.594 44.829,192.667 46.165,192.667 47.562 C 192.667 50.354,192.737 50.594,193.608 50.765 C 194.702 50.980,194.835 50.593,194.824 47.208 C 194.813 43.595,194.668 43.073,193.422 42.178 C 192.271 41.350,189.577 41.213,188.333 41.918 M196.506 41.822 C 196.199 42.395,196.279 50.089,196.595 50.405 C 197.144 50.953,198.500 50.786,198.500 50.170 C 198.500 50.085,198.894 50.199,199.375 50.423 C 201.272 51.306,203.662 50.532,204.245 48.845 C 204.573 47.896,204.618 42.018,204.300 41.700 C 203.962 41.362,202.706 41.448,202.506 41.822 C 202.407 42.007,202.333 43.310,202.333 44.869 C 202.333 47.918,202.259 48.167,201.245 48.502 C 200.523 48.740,199.806 48.529,199.130 47.881 L 198.667 47.438 198.667 44.896 C 198.667 41.674,198.608 41.500,197.510 41.500 C 196.858 41.500,196.641 41.570,196.506 41.822 M206.193 41.925 C 205.942 42.476,205.937 47.019,206.186 48.200 C 206.655 50.419,209.437 51.525,211.357 50.254 C 211.848 49.929,212.000 49.887,212.000 50.077 C 212.000 50.733,213.500 51.028,213.871 50.445 C 214.019 50.213,214.045 42.144,213.899 41.764 C 213.740 41.351,212.233 41.398,212.006 41.822 C 211.909 42.004,211.833 43.253,211.833 44.687 C 211.833 48.059,211.287 48.891,209.341 48.483 C 208.387 48.282,208.333 48.089,208.333 44.835 C 208.333 41.521,208.326 41.500,207.160 41.500 C 206.493 41.500,206.360 41.558,206.193 41.925 M216.899 41.755 C 215.045 42.699,214.493 45.222,216.141 45.222 C 216.670 45.222,217.333 44.776,217.333 44.420 C 217.333 43.991,218.119 43.475,218.690 43.530 C 219.649 43.621,219.833 44.249,219.833 47.426 C 219.833 50.352,219.900 50.594,220.753 50.761 C 221.123 50.833,221.378 50.763,221.723 50.491 L 222.192 50.123 222.137 46.936 C 222.079 43.490,221.928 42.908,220.833 41.916 C 220.332 41.462,217.687 41.354,216.899 41.755 M225.750 41.780 C 224.022 42.699,223.669 43.636,223.668 47.299 C 223.667 50.434,223.891 50.997,225.048 50.765 C 225.801 50.615,225.892 50.464,226.011 49.159 C 226.144 47.709,226.554 47.167,227.517 47.167 C 228.608 47.167,229.127 46.008,228.296 45.426 C 227.858 45.119,226.486 45.081,226.200 45.367 C 225.944 45.623,225.924 45.056,226.166 44.419 C 226.537 43.442,228.472 43.230,229.317 44.074 C 229.743 44.499,229.751 44.557,229.833 47.412 C 229.925 50.615,229.964 50.733,230.936 50.733 C 231.932 50.733,232.000 50.504,232.000 47.160 C 232.000 43.391,231.871 43.002,230.268 41.933 C 229.463 41.395,226.650 41.300,225.750 41.780 M233.762 41.762 C 233.538 41.985,233.500 42.609,233.500 46.019 L 233.500 50.015 233.909 50.424 C 234.429 50.944,234.905 50.943,235.425 50.423 L 235.836 50.013 236.389 50.339 C 237.992 51.285,240.642 50.602,241.486 49.026 C 241.749 48.535,241.731 41.964,241.467 41.700 C 241.129 41.362,239.873 41.448,239.673 41.822 C 239.574 42.007,239.500 43.310,239.500 44.869 C 239.500 47.927,239.416 48.203,238.404 48.482 C 237.630 48.696,236.880 48.447,236.292 47.781 L 235.833 47.263 235.833 44.581 C 235.833 42.718,235.772 41.839,235.633 41.700 C 235.341 41.408,234.074 41.450,233.762 41.762 M243.673 41.822 C 243.350 42.424,243.451 49.151,243.792 49.831 C 244.295 50.833,245.693 51.124,246.733 50.443 C 247.644 49.846,247.355 48.333,246.329 48.333 L 245.833 48.333 245.833 45.117 C 245.833 42.837,245.775 41.842,245.633 41.700 C 245.291 41.358,243.874 41.446,243.673 41.822 M248.778 41.611 C 248.717 41.672,248.667 43.572,248.667 45.832 L 248.667 49.942 249.078 50.328 C 250.113 51.301,252.193 50.750,252.300 49.474 C 252.362 48.745,252.008 48.333,251.321 48.333 L 250.833 48.333 250.833 45.239 C 250.833 41.604,250.802 41.500,249.689 41.500 C 249.249 41.500,248.839 41.550,248.778 41.611 M253.360 41.925 C 253.083 42.532,253.098 49.606,253.377 50.154 C 254.153 51.674,255.404 50.858,255.464 48.791 L 255.512 47.169 256.048 46.895 C 256.342 46.744,256.865 46.369,257.209 46.061 C 257.926 45.418,257.963 45.409,258.463 45.759 C 258.811 46.003,258.833 46.141,258.833 48.017 C 258.833 50.362,259.144 50.980,260.214 50.765 C 261.049 50.599,261.083 50.487,261.083 47.934 C 261.083 45.311,260.959 44.850,260.149 44.457 L 259.677 44.229 260.422 43.606 C 261.235 42.926,261.498 41.830,260.903 41.601 C 260.200 41.331,259.414 41.504,258.806 42.063 C 258.470 42.372,257.945 42.800,257.639 43.016 C 257.333 43.231,256.960 43.560,256.809 43.746 C 256.658 43.931,256.302 44.219,256.017 44.384 L 255.500 44.686 255.500 43.293 C 255.500 41.663,255.393 41.500,254.327 41.500 C 253.660 41.500,253.527 41.558,253.360 41.925 M265.691 41.673 C 263.741 42.073,264.065 43.575,266.102 43.581 C 267.683 43.585,268.047 44.002,268.095 45.867 C 268.140 47.626,267.964 48.257,267.337 48.581 C 266.163 49.188,265.529 48.675,264.873 46.585 C 264.352 44.925,263.989 44.598,263.042 44.929 C 262.022 45.286,262.716 48.520,264.114 49.932 C 265.592 51.423,268.891 50.864,269.809 48.966 C 271.727 45.006,269.414 40.910,265.691 41.673 M272.033 41.700 C 271.477 42.256,271.902 43.500,272.648 43.500 L 273.062 43.500 272.639 43.958 C 271.168 45.553,271.402 48.992,273.053 50.037 C 275.522 51.599,278.952 50.522,279.256 48.090 C 279.461 46.456,279.255 44.699,278.803 44.217 L 278.417 43.805 278.793 43.500 C 279.000 43.332,279.214 42.972,279.268 42.701 C 279.540 41.343,278.197 41.024,277.020 42.167 C 276.642 42.533,276.227 42.833,276.097 42.833 C 275.967 42.833,275.786 43.040,275.694 43.292 C 275.528 43.746,275.526 43.744,275.513 43.138 C 275.484 41.795,272.975 40.758,272.033 41.700 M281.898 41.933 C 280.213 43.060,279.867 44.933,281.287 45.241 C 281.859 45.365,282.667 44.800,282.667 44.277 C 282.667 43.973,283.381 43.500,283.838 43.500 C 284.940 43.500,285.164 44.210,285.166 47.688 C 285.167 50.508,285.189 50.579,286.105 50.763 C 287.938 51.129,288.199 44.154,286.424 42.248 L 285.727 41.500 284.137 41.500 C 282.701 41.500,282.483 41.542,281.898 41.933 M290.098 42.173 C 287.777 44.741,288.618 50.038,291.449 50.684 C 293.668 51.191,294.750 50.189,294.750 47.624 L 294.750 45.973 294.206 45.486 C 293.481 44.839,292.011 44.774,291.593 45.370 C 291.031 46.173,291.327 46.923,292.249 47.027 C 293.058 47.118,293.060 48.500,292.251 48.500 C 291.142 48.500,290.735 44.936,291.705 43.713 C 291.829 43.556,292.013 43.585,292.510 43.838 C 293.288 44.235,293.690 44.250,294.357 43.905 C 295.305 43.414,295.333 43.504,295.333 46.963 C 295.333 50.400,295.380 50.590,296.274 50.765 C 297.393 50.985,297.500 50.638,297.497 46.792 C 297.494 41.944,297.242 41.397,295.091 41.569 C 293.632 41.686,293.368 41.686,291.906 41.569 L 290.728 41.475 290.098 42.173 M304.000 41.899 C 301.633 43.157,302.414 45.221,304.801 44.016 C 307.135 42.838,308.157 43.736,307.961 46.793 C 307.804 49.234,306.176 49.443,306.031 47.040 C 305.941 45.558,305.735 45.333,304.463 45.333 C 303.119 45.333,302.833 45.512,302.833 46.354 C 302.833 46.949,302.892 47.051,303.327 47.215 C 303.796 47.392,304.167 48.287,304.167 49.241 C 304.167 50.627,307.460 51.223,308.941 50.105 C 310.639 48.823,310.600 43.357,308.883 42.046 C 307.999 41.371,305.155 41.285,304.000 41.899 M313.054 41.616 C 311.423 41.934,310.411 44.858,311.810 45.212 C 312.382 45.357,312.975 45.074,313.207 44.545 C 313.492 43.894,313.977 43.500,314.494 43.500 C 315.600 43.500,315.824 44.216,315.829 47.771 C 315.834 50.576,315.892 50.733,316.917 50.733 C 317.975 50.733,318.000 50.649,318.000 47.046 C 318.000 41.955,316.992 40.849,313.054 41.616 M321.833 41.686 C 320.102 42.373,319.176 43.529,319.569 44.512 C 319.768 45.010,319.833 45.772,319.833 47.594 C 319.833 50.406,320.088 50.989,321.219 50.766 C 322.148 50.584,322.194 50.399,322.144 47.012 L 322.100 43.941 322.675 43.733 C 323.655 43.379,324.272 43.450,324.872 43.986 L 325.417 44.472 325.469 47.316 L 325.522 50.160 325.967 50.510 C 326.480 50.913,327.278 50.848,327.631 50.374 C 327.951 49.945,327.892 44.464,327.560 43.668 C 326.795 41.832,323.949 40.847,321.833 41.686 M331.417 41.783 C 328.497 43.358,328.246 49.026,331.029 50.516 C 331.604 50.823,333.337 50.779,333.971 50.441 C 335.400 49.678,335.631 46.194,334.314 45.272 C 333.762 44.885,332.304 44.906,331.942 45.305 C 331.340 45.971,331.642 47.000,332.440 47.000 C 333.099 47.000,333.297 47.312,333.063 47.978 C 332.616 49.249,331.444 47.945,331.445 46.179 C 331.447 44.083,333.100 42.851,334.668 43.778 C 335.403 44.212,335.500 44.636,335.500 47.432 C 335.500 50.634,336.060 51.564,337.357 50.515 C 338.177 49.851,337.927 43.612,337.043 42.680 C 335.915 41.492,332.859 41.005,331.417 41.783 M348.367 41.700 C 348.076 41.991,348.084 49.992,348.375 50.383 C 348.871 51.048,350.167 50.815,350.167 50.060 C 350.167 49.856,350.250 49.869,350.625 50.132 C 352.276 51.290,354.668 50.894,355.789 49.277 C 356.249 48.614,356.250 48.608,356.304 45.297 C 356.367 41.450,356.371 41.460,355.098 41.534 L 354.250 41.583 354.167 44.683 C 354.110 46.792,354.017 47.863,353.877 48.031 C 353.339 48.678,351.682 48.715,351.077 48.095 C 350.382 47.383,350.333 47.145,350.333 44.496 C 350.333 41.586,350.302 41.500,349.250 41.500 C 348.874 41.500,348.477 41.590,348.367 41.700 M358.095 41.762 C 357.872 41.985,357.833 42.609,357.833 46.019 L 357.833 50.015 358.242 50.424 C 359.282 51.464,360.167 50.618,360.167 48.586 C 360.167 47.376,360.212 47.140,360.458 47.049 C 360.619 46.989,360.787 46.894,360.833 46.836 C 362.438 44.817,363.500 45.347,363.500 48.167 C 363.500 50.311,363.605 50.601,364.441 50.765 C 364.843 50.844,365.047 50.786,365.316 50.517 C 365.982 49.852,365.704 44.518,365.002 44.497 C 364.459 44.481,364.507 44.147,365.143 43.524 C 366.205 42.483,366.031 41.499,364.786 41.501 C 364.105 41.502,361.167 43.547,361.167 44.020 C 361.167 44.101,361.079 44.167,360.971 44.167 C 360.864 44.167,360.639 44.291,360.471 44.442 C 360.179 44.707,360.167 44.669,360.167 43.480 C 360.167 41.675,359.082 40.775,358.095 41.762 M368.583 41.665 C 367.553 42.108,366.667 43.351,366.667 44.353 C 366.667 45.424,368.372 45.554,368.905 44.523 C 369.290 43.778,369.640 43.500,370.190 43.500 C 371.281 43.500,371.500 44.181,371.500 47.574 C 371.500 50.611,371.543 50.733,372.618 50.733 C 373.641 50.733,373.693 50.526,373.635 46.750 C 373.577 43.021,373.453 42.577,372.264 41.842 C 371.671 41.476,369.289 41.361,368.583 41.665 M375.506 41.822 C 375.111 42.560,375.512 43.500,376.221 43.500 C 376.600 43.500,376.577 43.589,376.014 44.301 C 373.056 48.045,378.189 52.957,381.845 49.881 C 383.195 48.745,383.514 44.799,382.308 44.153 C 381.972 43.973,381.976 43.957,382.482 43.435 C 383.030 42.870,383.175 42.075,382.800 41.700 C 382.389 41.289,381.232 41.457,380.781 41.994 C 380.552 42.266,380.095 42.639,379.766 42.824 L 379.167 43.161 379.167 42.818 C 379.167 41.694,376.031 40.841,375.506 41.822 M384.875 41.610 C 384.650 41.701,384.564 47.777,384.772 48.819 C 385.104 50.477,388.657 51.403,389.956 50.170 C 390.230 49.910,390.259 49.913,390.416 50.225 C 390.661 50.712,391.387 50.906,391.952 50.635 L 392.417 50.412 392.461 46.185 C 392.512 41.352,392.540 41.460,391.265 41.534 L 390.417 41.583 390.333 44.529 C 390.241 47.809,390.145 48.081,388.954 48.443 C 387.217 48.972,386.846 48.356,386.833 44.917 C 386.821 41.521,386.488 40.960,384.875 41.610 M276.310 44.777 C 278.083 46.385,277.092 49.107,274.965 48.470 C 273.745 48.104,273.409 46.480,274.344 45.469 C 274.625 45.165,274.978 44.710,275.130 44.458 C 275.464 43.903,275.298 43.858,276.310 44.777 M379.958 44.814 C 381.124 45.879,380.979 48.067,379.716 48.484 C 377.662 49.162,376.777 46.822,378.388 44.977 C 379.229 44.015,379.099 44.028,379.958 44.814 M144.179 58.606 C 143.721 59.188,143.742 59.758,144.242 60.258 C 145.035 61.051,146.333 60.510,146.333 59.387 C 146.333 58.326,144.828 57.780,144.179 58.606 M268.917 58.366 C 267.856 58.967,268.348 60.667,269.583 60.667 C 270.220 60.667,270.833 60.050,270.833 59.411 C 270.833 58.415,269.812 57.858,268.917 58.366 M357.000 58.500 C 356.614 58.886,356.564 59.768,356.904 60.216 C 357.270 60.698,358.227 60.773,358.648 60.352 C 359.420 59.580,358.893 58.167,357.833 58.167 C 357.556 58.167,357.185 58.315,357.000 58.500 M373.204 58.426 C 372.559 58.877,372.703 60.083,373.447 60.475 C 374.314 60.931,375.167 60.425,375.167 59.454 C 375.167 58.312,374.137 57.773,373.204 58.426 M173.167 58.833 C 172.850 59.150,172.833 59.389,172.833 63.546 C 172.833 68.481,172.873 68.667,173.917 68.667 C 174.960 68.667,175.000 68.477,175.000 63.583 C 175.000 59.923,174.959 59.183,174.741 58.870 C 174.410 58.399,173.620 58.380,173.167 58.833 M195.839 58.822 C 195.733 59.021,195.667 60.842,195.667 63.583 C 195.667 68.484,195.700 68.667,196.580 68.667 C 197.627 68.667,197.667 68.481,197.667 63.583 C 197.667 59.923,197.626 59.183,197.407 58.870 C 197.066 58.383,196.090 58.353,195.839 58.822 M256.426 58.870 C 256.001 59.477,256.042 68.002,256.471 68.391 C 256.845 68.728,257.722 68.752,257.988 68.431 C 258.156 68.228,258.246 68.228,258.634 68.430 C 261.888 70.128,264.857 64.857,262.163 62.163 C 261.281 61.281,259.135 60.877,258.738 61.519 C 258.477 61.942,258.333 61.531,258.333 60.359 C 258.333 58.601,257.222 57.734,256.426 58.870 M264.776 58.805 C 264.363 59.261,264.358 68.001,264.771 68.414 C 265.191 68.834,266.190 68.687,266.452 68.167 C 266.735 67.604,266.755 59.646,266.475 59.114 C 266.111 58.423,265.262 58.268,264.776 58.805 M395.458 58.680 C 395.215 58.822,395.167 59.097,395.167 60.339 L 395.167 61.828 394.491 61.476 C 392.400 60.386,390.333 62.096,390.333 64.917 C 390.333 67.931,392.587 69.679,394.764 68.352 C 395.267 68.046,395.282 68.046,395.473 68.353 C 395.698 68.713,396.648 68.785,396.967 68.467 C 397.304 68.130,397.246 59.103,396.905 58.762 C 396.609 58.466,395.895 58.426,395.458 58.680 M127.167 58.949 C 126.577 59.160,126.500 59.527,126.499 62.157 C 126.498 64.558,126.480 64.715,126.249 64.273 C 126.113 64.011,125.808 63.561,125.572 63.273 C 124.835 62.374,123.500 60.491,123.500 60.351 C 123.500 59.909,122.283 59.000,121.692 59.000 C 120.657 59.000,120.667 58.954,120.667 63.833 C 120.667 68.656,120.669 68.667,121.605 68.667 C 122.593 68.667,122.667 68.445,122.667 65.482 L 122.667 62.822 123.144 63.369 C 123.407 63.670,123.674 64.085,123.739 64.292 C 123.803 64.498,123.917 64.667,123.992 64.667 C 124.066 64.667,124.448 65.158,124.840 65.760 C 126.434 68.207,126.884 68.667,127.686 68.667 C 128.797 68.667,128.833 68.510,128.833 63.789 L 128.833 59.652 128.424 59.242 C 128.027 58.845,127.682 58.765,127.167 58.949 M286.833 58.982 C 282.606 59.930,282.019 66.514,286.000 68.319 C 287.998 69.225,291.931 68.242,291.599 66.919 C 291.403 66.139,290.300 66.007,289.101 66.620 C 286.795 67.799,284.876 65.080,285.899 62.083 C 286.346 60.775,288.127 60.283,289.617 61.056 C 290.845 61.694,292.045 61.018,291.498 59.996 C 291.122 59.293,288.240 58.667,286.833 58.982 M179.533 59.200 C 178.730 60.003,179.515 60.749,181.100 60.690 L 182.333 60.644 182.333 64.455 C 182.333 68.657,182.336 68.667,183.355 68.667 C 184.481 68.667,184.500 68.597,184.500 64.398 L 184.500 60.654 185.747 60.683 C 187.383 60.721,187.857 60.312,187.327 59.322 C 187.116 58.927,179.919 58.814,179.533 59.200 M239.708 59.188 C 239.329 59.574,239.418 68.040,239.805 68.391 C 240.876 69.360,241.667 68.534,241.667 66.445 L 241.667 64.833 242.742 64.833 C 245.659 64.833,247.000 63.877,247.000 61.797 C 247.000 60.708,246.583 59.871,245.814 59.417 C 245.106 58.998,240.080 58.810,239.708 59.188 M349.000 59.333 C 348.685 59.649,348.667 59.889,348.667 63.796 C 348.667 69.151,348.322 68.667,352.134 68.664 C 355.408 68.661,355.567 68.619,355.567 67.750 C 355.567 66.910,355.370 66.839,353.042 66.836 L 351.000 66.833 351.000 63.192 C 351.000 59.877,350.973 59.527,350.695 59.276 C 350.276 58.896,349.408 58.926,349.000 59.333 M138.997 59.570 C 138.907 59.660,138.833 60.084,138.833 60.512 C 138.833 61.246,138.804 61.298,138.331 61.392 C 137.314 61.596,137.352 63.185,138.376 63.303 L 138.833 63.355 138.833 65.266 C 138.833 68.166,139.282 68.810,141.176 68.628 C 142.342 68.516,143.000 67.889,143.000 66.891 C 143.000 65.860,142.192 65.475,141.494 66.173 C 140.965 66.701,140.833 66.431,140.833 64.823 L 140.833 63.333 141.413 63.333 C 142.126 63.333,142.575 62.774,142.405 62.097 C 142.280 61.598,141.884 61.333,141.261 61.333 C 140.859 61.333,140.833 61.284,140.833 60.496 C 140.833 59.468,139.680 58.887,138.997 59.570 M377.708 59.588 C 377.418 59.792,377.333 60.015,377.333 60.572 C 377.333 61.231,377.293 61.300,376.856 61.387 C 375.967 61.565,376.019 63.333,376.913 63.333 L 377.333 63.333 377.333 65.166 C 377.333 68.002,377.750 68.667,379.527 68.667 C 381.075 68.667,382.341 66.825,381.296 66.093 C 380.808 65.751,380.556 65.765,380.045 66.167 C 379.383 66.688,379.333 66.601,379.333 64.917 L 379.333 63.333 379.913 63.333 C 380.626 63.333,381.075 62.774,380.905 62.097 C 380.780 61.598,380.384 61.333,379.761 61.333 C 379.360 61.333,379.333 61.282,379.333 60.520 C 379.333 59.417,378.571 58.979,377.708 59.588 M244.326 60.879 C 244.860 61.149,245.020 61.791,244.695 62.363 C 244.393 62.896,244.084 62.995,242.708 62.998 L 241.667 63.000 241.667 61.833 L 241.667 60.667 242.792 60.669 C 243.410 60.670,244.101 60.765,244.326 60.879 M150.484 61.313 C 148.073 61.820,146.962 64.554,148.191 66.954 C 149.531 69.570,154.547 69.176,155.319 66.393 C 155.759 64.809,155.178 62.167,154.390 62.167 C 154.267 62.167,154.167 62.100,154.167 62.018 C 154.167 61.554,151.640 61.070,150.484 61.313 M157.233 61.294 C 156.762 61.609,156.667 62.229,156.667 64.981 C 156.667 68.337,156.758 68.667,157.684 68.667 C 158.678 68.667,158.833 68.301,158.833 65.963 C 158.833 63.714,159.013 63.333,160.071 63.333 C 161.067 63.333,161.167 63.582,161.167 66.062 C 161.167 68.519,161.224 68.667,162.180 68.667 C 163.149 68.667,163.196 68.512,163.136 65.465 C 163.079 62.526,162.954 62.114,161.944 61.548 C 161.432 61.260,159.746 61.284,159.161 61.586 C 158.707 61.821,158.648 61.815,158.336 61.503 C 157.992 61.159,157.559 61.077,157.233 61.294 M217.601 61.431 C 217.153 61.574,216.678 61.798,216.548 61.929 C 216.417 62.060,216.247 62.167,216.171 62.167 C 215.443 62.167,214.983 65.855,215.572 66.967 C 216.826 69.334,221.354 69.279,222.518 66.882 C 224.146 63.529,221.214 60.279,217.601 61.431 M224.537 61.426 C 223.996 61.805,223.953 68.207,224.489 68.494 C 225.860 69.228,226.333 68.535,226.333 65.792 L 226.333 63.658 226.761 63.496 C 228.097 62.988,228.333 63.363,228.333 65.986 C 228.333 68.337,228.464 68.667,229.399 68.667 C 230.453 68.667,230.500 68.553,230.500 65.990 L 230.500 63.658 230.928 63.496 C 232.312 62.969,232.572 63.354,232.639 66.028 C 232.701 68.488,232.770 68.667,233.654 68.667 C 234.621 68.667,234.667 68.538,234.667 65.821 C 234.667 62.700,234.629 62.535,233.777 61.896 C 232.644 61.046,231.138 61.014,230.144 61.818 C 229.763 62.127,229.750 62.126,229.310 61.756 C 228.644 61.196,227.602 61.081,226.796 61.480 C 226.148 61.801,226.134 61.801,225.819 61.486 C 225.432 61.099,225.031 61.080,224.537 61.426 M248.537 61.426 C 247.970 61.824,247.973 66.212,248.542 67.340 C 249.154 68.554,251.031 69.090,252.325 68.421 C 252.743 68.205,252.824 68.205,253.004 68.421 C 253.290 68.766,254.224 68.730,254.558 68.362 C 254.793 68.101,254.833 67.609,254.833 64.971 C 254.833 61.584,254.762 61.333,253.792 61.333 C 252.851 61.333,252.833 61.374,252.833 63.540 L 252.833 65.544 252.238 66.105 C 251.597 66.710,251.347 66.773,250.781 66.475 C 250.205 66.172,250.172 66.033,250.169 63.875 C 250.166 61.322,249.695 60.615,248.537 61.426 M295.333 61.323 C 292.952 61.803,291.794 64.502,292.937 66.911 C 294.126 69.420,299.327 69.186,299.980 66.593 C 300.890 62.979,298.811 60.621,295.333 61.323 M301.742 61.576 C 301.338 61.980,301.333 62.021,301.333 64.992 C 301.333 68.398,301.424 68.667,302.574 68.667 C 303.510 68.667,303.667 68.270,303.667 65.891 C 303.667 63.612,303.782 63.333,304.729 63.333 C 305.601 63.333,305.667 63.515,305.667 65.924 C 305.667 68.365,305.789 68.667,306.779 68.667 C 307.694 68.667,307.833 68.307,307.833 65.949 C 307.833 63.522,308.026 63.176,309.249 63.406 L 309.833 63.515 309.833 65.720 C 309.833 68.541,310.295 69.234,311.678 68.494 C 312.049 68.295,312.168 63.681,311.825 62.733 C 311.306 61.295,308.897 60.759,307.443 61.759 C 307.187 61.934,307.046 61.919,306.609 61.670 C 305.729 61.168,304.928 61.109,304.083 61.483 C 303.671 61.665,303.333 61.756,303.333 61.684 C 303.333 61.544,302.593 61.167,302.318 61.167 C 302.226 61.167,301.967 61.351,301.742 61.576 M330.167 61.282 C 329.561 61.499,329.500 61.840,329.500 65.022 C 329.500 68.472,329.563 68.667,330.672 68.667 C 331.547 68.667,331.637 68.437,331.696 66.050 C 331.756 63.618,331.797 63.518,332.790 63.385 C 333.835 63.245,334.000 63.615,334.000 66.095 C 334.000 68.355,334.136 68.667,335.126 68.667 C 336.093 68.667,336.182 68.408,336.158 65.687 C 336.133 62.938,336.002 62.439,335.126 61.772 C 334.360 61.187,332.629 61.136,331.939 61.679 C 331.583 61.959,331.500 61.976,331.500 61.768 C 331.500 61.326,330.779 61.064,330.167 61.282 M337.370 61.426 C 336.665 61.920,337.217 63.780,339.176 67.513 C 339.469 68.071,339.471 68.134,339.212 68.513 C 338.816 69.092,338.652 69.177,338.026 69.131 C 337.127 69.063,336.664 69.978,337.305 70.558 C 338.496 71.635,340.930 70.404,341.784 68.292 C 341.923 67.948,342.084 67.666,342.143 67.665 C 342.202 67.664,342.374 67.382,342.526 67.040 C 342.678 66.697,343.061 65.854,343.377 65.167 C 344.662 62.369,344.756 61.748,343.952 61.365 C 342.992 60.906,342.357 61.480,341.775 63.333 C 341.448 64.374,340.794 65.833,340.656 65.833 C 340.539 65.833,340.386 65.462,340.002 64.250 C 339.183 61.665,338.333 60.752,337.370 61.426 M360.942 61.471 C 360.706 61.733,360.667 62.231,360.667 64.960 C 360.667 68.510,360.713 68.667,361.756 68.667 C 362.552 68.667,362.667 68.341,362.667 66.083 C 362.667 63.883,362.777 63.557,363.568 63.409 C 364.720 63.192,364.833 63.407,364.833 65.802 C 364.833 68.332,364.988 68.717,365.970 68.634 C 366.850 68.560,366.995 68.150,366.998 65.714 C 367.000 63.463,367.063 63.333,368.146 63.333 C 368.996 63.333,369.167 63.788,369.167 66.048 C 369.167 68.387,369.271 68.667,370.144 68.667 C 371.111 68.667,371.209 68.345,371.139 65.398 C 371.072 62.551,370.935 62.127,369.917 61.600 C 368.988 61.120,367.504 61.144,366.820 61.650 L 366.321 62.019 365.727 61.653 C 365.020 61.215,363.548 61.150,362.976 61.530 C 362.646 61.749,362.576 61.743,362.304 61.471 C 361.915 61.081,361.295 61.082,360.942 61.471 M131.417 61.694 C 129.330 62.776,129.908 64.481,132.058 63.583 C 132.856 63.250,134.232 63.256,134.571 63.595 C 134.933 63.957,134.939 63.955,133.958 63.822 C 131.408 63.477,129.888 64.509,130.031 66.487 C 130.162 68.289,132.281 69.250,134.281 68.414 C 134.821 68.189,134.915 68.189,135.164 68.414 C 135.507 68.724,136.168 68.741,136.567 68.449 C 136.990 68.140,136.904 63.375,136.461 62.559 C 135.817 61.374,132.974 60.886,131.417 61.694 M144.367 61.533 C 144.225 61.675,144.167 62.681,144.167 65.000 C 144.167 68.557,144.194 68.667,145.091 68.667 C 146.090 68.667,146.167 68.407,146.167 65.018 C 146.167 63.241,146.095 61.844,145.994 61.656 C 145.795 61.283,144.699 61.201,144.367 61.533 M166.275 61.504 C 165.536 61.726,164.668 62.378,164.561 62.791 C 164.322 63.713,165.084 64.049,166.367 63.587 C 167.238 63.274,168.699 63.299,169.032 63.632 C 169.161 63.761,168.813 63.809,167.814 63.801 C 165.513 63.784,164.488 64.471,164.370 66.111 C 164.224 68.122,166.560 69.343,168.778 68.416 C 169.319 68.190,169.398 68.191,169.572 68.429 C 169.877 68.847,170.860 68.680,171.119 68.167 C 171.507 67.394,171.297 63.582,170.810 62.567 C 170.308 61.520,168.015 60.983,166.275 61.504 M188.740 61.632 C 187.337 62.414,186.923 63.180,186.919 65.000 C 186.913 67.880,189.785 69.597,192.624 68.410 C 194.594 67.587,194.174 65.917,192.165 66.584 C 190.724 67.063,189.000 66.685,189.000 65.891 C 189.000 65.713,189.516 65.667,191.494 65.667 C 194.288 65.667,194.333 65.647,194.333 64.422 C 194.333 62.059,190.976 60.385,188.740 61.632 M200.695 61.691 C 198.634 62.711,198.324 66.341,200.165 67.889 C 201.751 69.224,206.000 68.743,206.000 67.228 C 206.000 66.517,205.287 66.224,204.361 66.556 C 203.184 66.978,202.077 66.926,201.576 66.424 C 200.871 65.719,201.008 65.667,203.550 65.667 C 206.265 65.667,206.333 65.638,206.333 64.478 C 206.333 61.891,203.310 60.397,200.695 61.691 M209.067 61.732 C 206.982 62.703,206.487 65.782,208.120 67.622 C 209.756 69.464,215.059 68.777,213.988 66.862 C 213.686 66.322,213.192 66.225,212.520 66.573 C 211.318 67.195,209.784 66.723,209.493 65.642 C 209.008 63.841,210.186 62.763,212.093 63.260 C 213.433 63.608,213.807 63.574,214.031 63.082 C 214.705 61.602,211.322 60.682,209.067 61.732 M268.792 61.513 C 268.373 61.757,268.346 67.989,268.762 68.405 C 269.120 68.763,270.050 68.739,270.391 68.362 C 270.742 67.974,270.810 61.876,270.467 61.533 C 270.224 61.291,269.195 61.279,268.792 61.513 M274.258 61.538 C 271.394 62.578,271.305 66.988,274.120 68.351 C 275.110 68.830,277.732 68.766,278.429 68.245 C 279.736 67.268,278.805 65.822,277.353 66.573 C 276.506 67.011,275.390 66.916,274.833 66.358 C 273.334 64.860,274.688 62.657,276.778 63.193 C 277.129 63.283,277.584 63.397,277.789 63.447 C 279.265 63.807,279.578 62.387,278.180 61.673 C 277.429 61.291,275.156 61.212,274.258 61.538 M313.700 61.533 C 313.554 61.679,313.500 62.996,313.500 66.417 C 313.500 71.576,313.485 71.500,314.537 71.500 C 315.331 71.500,315.500 71.146,315.500 69.489 C 315.500 68.853,315.526 68.333,315.558 68.333 C 315.589 68.333,315.859 68.455,316.157 68.604 C 317.791 69.419,319.996 68.030,320.323 65.980 C 320.839 62.749,318.445 60.395,315.881 61.611 C 315.334 61.871,315.284 61.871,315.139 61.611 C 314.956 61.285,314.001 61.233,313.700 61.533 M322.947 61.575 C 321.565 62.068,320.916 63.063,321.625 63.601 C 321.982 63.872,322.866 63.900,323.118 63.649 C 323.513 63.254,325.378 63.261,325.833 63.660 C 326.063 63.861,326.157 63.978,326.043 63.921 C 325.066 63.425,322.745 63.881,321.766 64.760 C 319.672 66.640,323.034 69.764,325.667 68.386 C 326.223 68.094,326.263 68.094,326.542 68.373 C 326.967 68.801,327.608 68.744,327.932 68.250 C 328.247 67.770,328.192 63.912,327.855 62.831 C 327.445 61.514,324.926 60.869,322.947 61.575 M357.006 61.656 C 356.703 62.221,356.781 68.091,357.095 68.405 C 357.396 68.705,358.041 68.746,358.511 68.494 C 358.906 68.283,359.018 61.918,358.633 61.533 C 358.301 61.201,357.205 61.283,357.006 61.656 M373.200 61.533 C 372.867 61.866,372.923 68.066,373.262 68.405 C 373.571 68.714,374.515 68.752,374.800 68.467 C 375.011 68.255,375.099 62.120,374.899 61.597 C 374.776 61.277,373.504 61.229,373.200 61.533 M384.167 61.448 C 381.558 62.374,381.101 66.589,383.448 68.073 C 385.404 69.309,389.261 68.568,388.922 67.022 C 388.782 66.388,388.154 66.216,387.289 66.578 C 386.393 66.952,385.143 66.911,384.606 66.488 C 383.700 65.775,383.961 65.667,386.577 65.667 C 389.300 65.667,389.333 65.651,389.333 64.349 C 389.333 62.166,386.549 60.603,384.167 61.448 M152.747 63.398 C 153.998 64.650,153.100 67.169,151.480 66.952 C 150.225 66.783,149.648 65.779,149.928 64.250 C 150.141 63.090,151.905 62.557,152.747 63.398 M191.781 63.362 C 192.500 64.038,192.309 64.167,190.583 64.167 C 188.813 64.167,188.569 63.976,189.542 63.353 C 190.271 62.885,191.278 62.890,191.781 63.362 M203.924 63.409 C 204.595 64.079,204.459 64.167,202.750 64.167 C 201.041 64.167,200.905 64.079,201.576 63.409 C 202.154 62.831,203.346 62.831,203.924 63.409 M220.239 63.411 C 221.055 64.079,221.080 65.620,220.286 66.414 C 218.669 68.031,216.489 65.950,217.583 63.833 C 218.067 62.897,219.358 62.692,220.239 63.411 M297.548 63.399 C 298.323 64.117,298.354 65.776,297.605 66.480 C 296.723 67.308,294.969 66.930,294.736 65.861 C 294.682 65.617,294.607 65.315,294.568 65.190 C 294.099 63.698,296.387 62.322,297.548 63.399 M386.894 63.345 C 387.726 64.000,387.493 64.167,385.750 64.167 C 384.041 64.167,383.905 64.079,384.576 63.409 C 385.112 62.873,386.253 62.841,386.894 63.345 M260.488 63.411 C 261.564 63.967,261.420 65.942,260.258 66.567 C 258.935 67.280,257.549 65.047,258.542 63.803 C 259.050 63.166,259.744 63.026,260.488 63.411 M394.234 63.356 C 395.065 63.735,395.406 65.126,394.885 66.009 C 394.246 67.090,393.024 66.978,392.441 65.784 C 391.709 64.285,392.858 62.729,394.234 63.356 M317.777 63.579 C 318.494 64.082,318.415 66.266,317.664 66.668 C 316.453 67.316,315.031 65.838,315.500 64.417 C 315.830 63.415,316.953 63.002,317.777 63.579 M134.750 65.695 C 135.138 66.082,134.091 66.667,133.008 66.667 C 132.049 66.667,131.654 66.060,132.375 65.694 C 132.738 65.510,134.566 65.511,134.750 65.695 M168.819 65.605 C 169.465 65.735,169.409 65.992,168.655 66.367 C 167.908 66.738,166.936 66.746,166.575 66.385 C 165.961 65.771,167.308 65.303,168.819 65.605 M325.792 65.605 C 326.356 65.756,326.243 66.130,325.545 66.422 C 324.312 66.937,322.735 66.404,323.587 65.760 C 323.922 65.506,325.112 65.423,325.792 65.605 " stroke="none" fill="#545c5c" fill-rule="evenodd"></path><path id="path2" d="" stroke="none" fill="#d4d830" fill-rule="evenodd"></path><path id="path3" d="" stroke="none" fill="#7c9c30" fill-rule="evenodd"></path><path id="path4" d="M180.792 60.787 C 181.090 60.824,181.577 60.824,181.875 60.787 C 182.173 60.750,181.929 60.720,181.333 60.720 C 180.737 60.720,180.494 60.750,180.792 60.787 M184.958 60.787 C 185.256 60.824,185.744 60.824,186.042 60.787 C 186.340 60.750,186.096 60.720,185.500 60.720 C 184.904 60.720,184.660 60.750,184.958 60.787 M242.208 60.788 C 242.552 60.824,243.115 60.824,243.458 60.788 C 243.802 60.752,243.521 60.723,242.833 60.723 C 242.146 60.723,241.865 60.752,242.208 60.788 M337.875 69.115 C 338.035 69.157,338.298 69.157,338.458 69.115 C 338.619 69.073,338.487 69.039,338.167 69.039 C 337.846 69.039,337.715 69.073,337.875 69.115 " stroke="none" fill="#7c5c60" fill-rule="evenodd"></path></g></svg>